<svg version="1.1" id="Capa_1" xmlns="http://www.w3.org/2000/svg" xmlns:xlink="http://www.w3.org/1999/xlink" x="0px" y="0px"
	 width="100%" height="100%" viewBox="0 0 66.137 66.137" style="enable-background:new 0 0 66.137 66.137;"
	 xml:space="preserve">
<g>
	<g>
		<path d="M33.066,66.136C14.834,66.136,0,51.302,0,33.069C0,14.835,14.834,0.001,33.066,0.001
			c18.235,0,33.071,14.834,33.071,33.068C66.137,51.302,51.302,66.136,33.066,66.136z M33.066,4.001C17.039,4.001,4,17.041,4,33.069
			c0,16.027,13.039,29.066,29.066,29.066c16.03,0,29.071-13.039,29.071-29.066C62.137,17.041,49.096,4.001,33.066,4.001z"/>
		<g>
			<path d="M33.438,46.224c-0.125,0.094-0.25,0.156-0.406,0.156c-0.156,0-0.312-0.062-0.406-0.156l-9.344-9.375
				c-4.469-4.469-4.75-9.094-1.875-11.938c2.844-2.844,7.469-2.844,10.312,0c0.531,0.531,0.969,1.125,1.312,1.75
				c0.344-0.625,0.781-1.219,1.312-1.75c2.845-2.875,7.47-2.875,10.345,0c2.844,2.844,2.562,7.469-1.906,11.938L33.438,46.224z"/>
		</g>
	</g>
</g>
</svg>
